<mxfile>
    <diagram id="h61ItQZrIjBmcH0dazHC" name="Page-1">
        <mxGraphModel dx="240" dy="335" grid="1" gridSize="10" guides="1" tooltips="1" connect="1" arrows="1" fold="1" page="1" pageScale="1" pageWidth="827" pageHeight="1169" math="0" shadow="0">
            <root>
                <mxCell id="0"/>
                <mxCell id="1" parent="0"/>
                <mxCell id="2" value="&lt;h1&gt;Welcome&lt;/h1&gt;&lt;p&gt;Spaceship needs to leave Earth... pronto. Only problem is, we can't figure out the launch codes for the ship - can you help us?&lt;/p&gt;" style="text;html=1;strokeColor=none;fillColor=none;spacing=5;spacingTop=-20;whiteSpace=wrap;overflow=hidden;rounded=0;" parent="1" vertex="1">
                    <mxGeometry x="30" y="130" width="190" height="120" as="geometry"/>
                </mxCell>
                <mxCell id="3" value="&lt;h1&gt;/logs&lt;/h1&gt;&lt;p&gt;[&lt;br&gt;...,&lt;br&gt;{&lt;br&gt;&amp;nbsp; &amp;nbsp; date: 12/05/3015,&lt;br&gt;&amp;nbsp; &amp;nbsp; activity: &quot;CHANGE LAUNCH CODES&quot;,&lt;br&gt;&amp;nbsp; &amp;nbsp; who: 1&lt;br&gt;}&lt;br&gt;]&lt;/p&gt;" style="text;html=1;strokeColor=none;fillColor=none;spacing=5;spacingTop=-20;whiteSpace=wrap;overflow=hidden;rounded=0;" parent="1" vertex="1">
                    <mxGeometry x="290" y="10" width="190" height="180" as="geometry"/>
                </mxCell>
                <mxCell id="4" value="&lt;h1&gt;/personnel/:id&lt;/h1&gt;&lt;p&gt;{&lt;br&gt;&amp;nbsp; &amp;nbsp; id: 1,&lt;br&gt;&amp;nbsp; &amp;nbsp; name: &quot;Chris&quot;,&lt;br&gt;&amp;nbsp; &amp;nbsp; dateOfBirth: &quot;01/01/2085&quot;&lt;br&gt;}&lt;/p&gt;" style="text;html=1;strokeColor=none;fillColor=none;spacing=5;spacingTop=-20;whiteSpace=wrap;overflow=hidden;rounded=0;" parent="1" vertex="1">
                    <mxGeometry x="290" y="220" width="190" height="180" as="geometry"/>
                </mxCell>
                <mxCell id="5" value="&lt;h1&gt;/messages?to=1&lt;/h1&gt;&lt;p&gt;[{&lt;br&gt;&amp;nbsp; &amp;nbsp; date: &quot;13/05/3015&quot;,&lt;br&gt;&amp;nbsp; &amp;nbsp; to: 1,&lt;br&gt;&amp;nbsp; &amp;nbsp; from: 12,&lt;br&gt;&amp;nbsp; &amp;nbsp; subject: &quot;LAUNCH CODES: Weak Change&quot;,&lt;br&gt;&amp;nbsp; &amp;nbsp; message: &quot;Why oh why did you change the launch codes to that? You can't just have them as your date of birth backwards. I've added today's date to your dob, and then reversed it... slightly better if you ask me... which you never do :(&quot;&lt;br&gt;}]&lt;/p&gt;" style="text;html=1;strokeColor=none;fillColor=none;spacing=5;spacingTop=-20;whiteSpace=wrap;overflow=hidden;rounded=0;" parent="1" vertex="1">
                    <mxGeometry x="290" y="380" width="190" height="310" as="geometry"/>
                </mxCell>
                <mxCell id="6" value="&lt;h1&gt;/hint&lt;/h1&gt;&lt;p&gt;{&lt;br&gt;&amp;nbsp; &amp;nbsp; length: 6,&lt;br&gt;&amp;nbsp; &amp;nbsp; type: &quot;number&quot;,&lt;br&gt;&amp;nbsp; &amp;nbsp; rules: &quot;Cannot start with a 0&quot;&lt;br&gt;}&lt;/p&gt;" style="text;html=1;strokeColor=none;fillColor=none;spacing=5;spacingTop=-20;whiteSpace=wrap;overflow=hidden;rounded=0;" parent="1" vertex="1">
                    <mxGeometry x="280" y="710" width="190" height="310" as="geometry"/>
                </mxCell>
                <mxCell id="7" value="&lt;h1&gt;/codes POST&lt;/h1&gt;&lt;p&gt;{&lt;br&gt;&amp;nbsp; &amp;nbsp; enter: 14065100&lt;br&gt;}&lt;/p&gt;" style="text;html=1;strokeColor=none;fillColor=none;spacing=5;spacingTop=-20;whiteSpace=wrap;overflow=hidden;rounded=0;" parent="1" vertex="1">
                    <mxGeometry x="290" y="840" width="190" height="120" as="geometry"/>
                </mxCell>
            </root>
        </mxGraphModel>
    </diagram>
</mxfile>